<svg width="64" height="36" viewBox="0 0 64 36" fill="none" xmlns="http://www.w3.org/2000/svg">
<g clip-path="url(#clip0_0_7768)">
<path d="M21.9433 0.222656C18.3332 0.222656 14.8709 1.65679 12.3181 4.20957L3.98692 12.5408C1.43413 15.0935 0 18.5558 0 22.166C0 29.6839 6.09439 35.7782 13.6122 35.7782C17.2224 35.7782 20.6847 34.344 23.2375 31.7912L29.0002 26.0285C29.0002 26.0284 29.0003 26.0286 29.0002 26.0285L45.7908 9.23789C47.01 8.0187 48.6636 7.33377 50.3878 7.33377C53.2744 7.33377 55.7217 9.21514 56.5702 11.8186L61.8693 6.5195C59.4519 2.73328 55.213 0.222656 50.3878 0.222656C46.7776 0.222656 43.3153 1.65679 40.7625 4.20957L18.2092 26.763C16.99 27.9822 15.3364 28.6671 13.6122 28.6671C10.0217 28.6671 7.11111 25.7565 7.11111 22.166C7.11111 20.4418 7.79604 18.7882 9.01523 17.569L17.3464 9.23789C18.5656 8.0187 20.2191 7.33377 21.9433 7.33377C24.8301 7.33377 27.2773 9.21523 28.1257 11.8188L33.4249 6.51963C31.0075 2.73335 26.7687 0.222656 21.9433 0.222656Z" fill="#2FBDFF"/>
<path d="M17.8557 26.763C16.6365 27.9822 14.9829 28.6671 13.2587 28.6671C10.3724 28.6671 7.92538 26.7862 7.07667 24.1832L1.77771 29.4822C4.19525 33.2679 8.43383 35.7782 13.2587 35.7782C16.8689 35.7782 20.3312 34.344 22.884 31.7913L45.4373 9.23789C46.6565 8.0187 48.3101 7.33377 50.0343 7.33377C53.6248 7.33377 56.5354 10.2444 56.5354 13.8349C56.5354 15.5591 55.8505 17.2126 54.6313 18.4318L46.3001 26.763C45.0809 27.9822 43.4274 28.6671 41.7032 28.6671C38.8166 28.6671 36.3695 26.7859 35.5209 24.1826L30.2219 29.4817C32.6393 33.2678 36.878 35.7782 41.7032 35.7782C45.3134 35.7782 48.7756 34.344 51.3284 31.7913L59.6595 23.4601C62.2123 20.9073 63.6465 17.4451 63.6465 13.8349C63.6465 6.31705 57.5522 0.222656 50.0343 0.222656C46.4241 0.222656 42.9618 1.65679 40.4091 4.20957L17.8557 26.763Z" fill="#2FBDFF"/>
</g>
<defs>
<clipPath id="clip0_0_7768">
<rect width="64" height="35.5556" fill="white" transform="translate(0 0.222656)"/>
</clipPath>
</defs>
</svg>
